<mxfile host="app.diagrams.net" modified="2024-05-21T12:25:27.828Z" agent="Mozilla/5.0 (Windows NT 10.0; Win64; x64) AppleWebKit/537.36 (KHTML, like Gecko) Chrome/124.0.0.0 Safari/537.36" etag="AJflzQzpAgWgZomGT-nf" version="24.4.4" type="device">
  <diagram name="Page-1" id="88PmNZ_73Zcw6gePjUq-">
    <mxGraphModel dx="1674" dy="738" grid="1" gridSize="10" guides="1" tooltips="1" connect="1" arrows="1" fold="1" page="1" pageScale="1" pageWidth="827" pageHeight="1169" math="0" shadow="0">
      <root>
        <mxCell id="0" />
        <mxCell id="1" parent="0" />
        <mxCell id="VN4kIlZ4VXHRD1IU0BB2-1" value="Layers Architecture" style="shape=umlFrame;whiteSpace=wrap;html=1;pointerEvents=0;width=120;height=15;" vertex="1" parent="1">
          <mxGeometry x="30" y="40" width="590" height="1430" as="geometry" />
        </mxCell>
        <mxCell id="VN4kIlZ4VXHRD1IU0BB2-3" value="Presentation Layer" style="shape=umlFrame;whiteSpace=wrap;html=1;pointerEvents=0;width=150;height=30;" vertex="1" parent="1">
          <mxGeometry x="80" y="110" width="460" height="190" as="geometry" />
        </mxCell>
        <mxCell id="VN4kIlZ4VXHRD1IU0BB2-5" value="Application Layer" style="shape=umlFrame;whiteSpace=wrap;html=1;pointerEvents=0;width=150;height=30;" vertex="1" parent="1">
          <mxGeometry x="80" y="482" width="460" height="210" as="geometry" />
        </mxCell>
        <mxCell id="VN4kIlZ4VXHRD1IU0BB2-6" value="Route Handlers" style="html=1;whiteSpace=wrap;" vertex="1" parent="1">
          <mxGeometry x="330" y="547" width="170" height="75" as="geometry" />
        </mxCell>
        <mxCell id="VN4kIlZ4VXHRD1IU0BB2-7" value="React Native UI" style="swimlane;childLayout=stackLayout;horizontal=1;startSize=50;horizontalStack=0;rounded=1;fontSize=14;fontStyle=0;strokeWidth=2;resizeParent=0;resizeLast=1;shadow=0;dashed=0;align=center;arcSize=4;whiteSpace=wrap;html=1;" vertex="1" parent="1">
          <mxGeometry x="100" y="160" width="220" height="120" as="geometry" />
        </mxCell>
        <mxCell id="VN4kIlZ4VXHRD1IU0BB2-8" value="Driver UI&lt;br&gt;Customer UI&lt;div&gt;&lt;br/&gt;&lt;/div&gt;" style="align=left;strokeColor=none;fillColor=none;spacingLeft=4;fontSize=12;verticalAlign=top;resizable=0;rotatable=0;part=1;html=1;" vertex="1" parent="VN4kIlZ4VXHRD1IU0BB2-7">
          <mxGeometry y="50" width="220" height="70" as="geometry" />
        </mxCell>
        <mxCell id="VN4kIlZ4VXHRD1IU0BB2-11" value="Express.js Controllers" style="whiteSpace=wrap;html=1;align=center;" vertex="1" parent="1">
          <mxGeometry x="100" y="547" width="180" height="80" as="geometry" />
        </mxCell>
        <mxCell id="VN4kIlZ4VXHRD1IU0BB2-12" value="Domain Layer" style="shape=umlFrame;whiteSpace=wrap;html=1;pointerEvents=0;width=150;height=30;" vertex="1" parent="1">
          <mxGeometry x="80" y="850" width="460" height="210" as="geometry" />
        </mxCell>
        <mxCell id="VN4kIlZ4VXHRD1IU0BB2-13" value="Services Classes" style="html=1;whiteSpace=wrap;" vertex="1" parent="1">
          <mxGeometry x="330" y="915" width="170" height="75" as="geometry" />
        </mxCell>
        <mxCell id="VN4kIlZ4VXHRD1IU0BB2-14" value="Business Logic" style="whiteSpace=wrap;html=1;align=center;" vertex="1" parent="1">
          <mxGeometry x="100" y="915" width="180" height="80" as="geometry" />
        </mxCell>
        <mxCell id="VN4kIlZ4VXHRD1IU0BB2-15" value="Data Access Layer" style="shape=umlFrame;whiteSpace=wrap;html=1;pointerEvents=0;width=150;height=30;" vertex="1" parent="1">
          <mxGeometry x="80" y="1187" width="460" height="210" as="geometry" />
        </mxCell>
        <mxCell id="VN4kIlZ4VXHRD1IU0BB2-16" value="MongoDB Queries" style="html=1;whiteSpace=wrap;" vertex="1" parent="1">
          <mxGeometry x="330" y="1252" width="170" height="75" as="geometry" />
        </mxCell>
        <mxCell id="VN4kIlZ4VXHRD1IU0BB2-17" value="Mongoose ORM" style="whiteSpace=wrap;html=1;align=center;" vertex="1" parent="1">
          <mxGeometry x="100" y="1252" width="180" height="80" as="geometry" />
        </mxCell>
        <mxCell id="VN4kIlZ4VXHRD1IU0BB2-18" value="" style="endArrow=classic;html=1;rounded=0;exitX=0.23;exitY=1.014;exitDx=0;exitDy=0;exitPerimeter=0;entryX=0.228;entryY=-0.01;entryDx=0;entryDy=0;entryPerimeter=0;" edge="1" parent="1" source="VN4kIlZ4VXHRD1IU0BB2-12" target="VN4kIlZ4VXHRD1IU0BB2-15">
          <mxGeometry width="50" height="50" relative="1" as="geometry">
            <mxPoint x="320" y="1180" as="sourcePoint" />
            <mxPoint x="370" y="1130" as="targetPoint" />
          </mxGeometry>
        </mxCell>
        <mxCell id="VN4kIlZ4VXHRD1IU0BB2-20" value="Data Operation&lt;div&gt;[Fetch User, Save Booking, Update location]&lt;/div&gt;" style="text;html=1;align=center;verticalAlign=middle;whiteSpace=wrap;rounded=0;" vertex="1" parent="1">
          <mxGeometry x="40" y="1100" width="150" height="30" as="geometry" />
        </mxCell>
        <mxCell id="VN4kIlZ4VXHRD1IU0BB2-21" value="" style="endArrow=classic;html=1;rounded=0;exitX=0.817;exitY=-0.005;exitDx=0;exitDy=0;exitPerimeter=0;entryX=0.815;entryY=0.995;entryDx=0;entryDy=0;entryPerimeter=0;" edge="1" parent="1" source="VN4kIlZ4VXHRD1IU0BB2-15" target="VN4kIlZ4VXHRD1IU0BB2-12">
          <mxGeometry width="50" height="50" relative="1" as="geometry">
            <mxPoint x="425" y="1060" as="sourcePoint" />
            <mxPoint x="424" y="1182" as="targetPoint" />
          </mxGeometry>
        </mxCell>
        <mxCell id="VN4kIlZ4VXHRD1IU0BB2-22" value="Data Response&lt;div&gt;[User Data, Booking Confirmation]&lt;/div&gt;" style="text;html=1;align=center;verticalAlign=middle;whiteSpace=wrap;rounded=0;" vertex="1" parent="1">
          <mxGeometry x="460" y="1100" width="140" height="30" as="geometry" />
        </mxCell>
        <mxCell id="VN4kIlZ4VXHRD1IU0BB2-23" value="" style="endArrow=classic;html=1;rounded=0;exitX=0.23;exitY=1.014;exitDx=0;exitDy=0;exitPerimeter=0;entryX=0.226;entryY=-0.005;entryDx=0;entryDy=0;entryPerimeter=0;" edge="1" parent="1" target="VN4kIlZ4VXHRD1IU0BB2-12">
          <mxGeometry width="50" height="50" relative="1" as="geometry">
            <mxPoint x="184" y="697" as="sourcePoint" />
            <mxPoint x="183" y="819" as="targetPoint" />
          </mxGeometry>
        </mxCell>
        <mxCell id="VN4kIlZ4VXHRD1IU0BB2-24" value="Function Call&lt;div&gt;[Validate user, Create Booking]&lt;/div&gt;" style="text;html=1;align=center;verticalAlign=middle;whiteSpace=wrap;rounded=0;" vertex="1" parent="1">
          <mxGeometry x="50" y="760" width="140" height="40" as="geometry" />
        </mxCell>
        <mxCell id="VN4kIlZ4VXHRD1IU0BB2-25" value="" style="endArrow=classic;html=1;rounded=0;exitX=0.809;exitY=-0.005;exitDx=0;exitDy=0;exitPerimeter=0;entryX=0.815;entryY=0.995;entryDx=0;entryDy=0;entryPerimeter=0;" edge="1" parent="1" source="VN4kIlZ4VXHRD1IU0BB2-12">
          <mxGeometry width="50" height="50" relative="1" as="geometry">
            <mxPoint x="454" y="820" as="sourcePoint" />
            <mxPoint x="453" y="693" as="targetPoint" />
          </mxGeometry>
        </mxCell>
        <mxCell id="VN4kIlZ4VXHRD1IU0BB2-26" value="Business Response&lt;div&gt;[Validation results, Booking Details]&lt;/div&gt;" style="text;html=1;align=center;verticalAlign=middle;whiteSpace=wrap;rounded=0;" vertex="1" parent="1">
          <mxGeometry x="458" y="760" width="152" height="40" as="geometry" />
        </mxCell>
        <mxCell id="VN4kIlZ4VXHRD1IU0BB2-27" value="" style="endArrow=classic;html=1;rounded=0;exitX=0.213;exitY=1.005;exitDx=0;exitDy=0;exitPerimeter=0;entryX=0.211;entryY=0.01;entryDx=0;entryDy=0;entryPerimeter=0;" edge="1" parent="1" source="VN4kIlZ4VXHRD1IU0BB2-3" target="VN4kIlZ4VXHRD1IU0BB2-5">
          <mxGeometry width="50" height="50" relative="1" as="geometry">
            <mxPoint x="178" y="312" as="sourcePoint" />
            <mxPoint x="178" y="464" as="targetPoint" />
          </mxGeometry>
        </mxCell>
        <mxCell id="VN4kIlZ4VXHRD1IU0BB2-28" value="Request&lt;div&gt;[Login, Book ride, Updat}&lt;/div&gt;" style="text;html=1;align=center;verticalAlign=middle;whiteSpace=wrap;rounded=0;" vertex="1" parent="1">
          <mxGeometry x="40" y="367.5" width="150" height="45" as="geometry" />
        </mxCell>
        <mxCell id="VN4kIlZ4VXHRD1IU0BB2-29" value="" style="endArrow=classic;html=1;rounded=0;exitX=0.796;exitY=-0.014;exitDx=0;exitDy=0;exitPerimeter=0;entryX=0.798;entryY=1.005;entryDx=0;entryDy=0;entryPerimeter=0;" edge="1" parent="1" source="VN4kIlZ4VXHRD1IU0BB2-5" target="VN4kIlZ4VXHRD1IU0BB2-3">
          <mxGeometry width="50" height="50" relative="1" as="geometry">
            <mxPoint x="446" y="464" as="sourcePoint" />
            <mxPoint x="447" y="308" as="targetPoint" />
          </mxGeometry>
        </mxCell>
        <mxCell id="VN4kIlZ4VXHRD1IU0BB2-30" value="Response&lt;div&gt;[Login Status, Ride details, Confirmation]&lt;/div&gt;" style="text;html=1;align=center;verticalAlign=middle;whiteSpace=wrap;rounded=0;" vertex="1" parent="1">
          <mxGeometry x="452" y="375" width="158" height="45" as="geometry" />
        </mxCell>
      </root>
    </mxGraphModel>
  </diagram>
</mxfile>
